# Rhino

mtllib oar4.mtl
g object_1
usemtl Beech
v 1.280585527420044 10.5205659866333 14.51382637023926
v 90.97177124023438 10.5205659866333 14.51382637023926
v 1.280585527420044 9.9727783203125 14.31444835662842
v 90.97177124023438 9.9727783203125 14.31444835662842
v 1.280585527420044 9.681306838989258 13.80960369110107
v 90.97177124023438 9.681306838989258 13.80960369110107
v 1.280585527420044 9.782533645629883 13.23551654815674
v 90.97177124023438 9.782533645629883 13.23551654815674
v 1.280585527420044 10.22909450531006 12.86080837249756
v 90.97177124023438 10.22909450531006 12.86080837249756
v 1.280585527420044 10.81203842163086 12.86080837249756
v 90.97177124023438 10.81203842163086 12.86080837249756
v 1.280585527420044 11.25859832763672 13.23551654815674
v 90.97177124023438 11.25859832763672 13.23551654815674
v 1.280585527420044 11.35982513427734 13.80960369110107
v 90.97177124023438 11.35982513427734 13.80960369110107
v 1.280585527420044 11.0683536529541 14.31444835662842
v 90.97177124023438 11.0683536529541 14.31444835662842
v 1.280585527420044 10.5205659866333 14.51382637023926
v 90.97177124023438 10.5205659866333 14.51382637023926
v 1.280585527420044 10.5205659866333 14.51382637023926
v 1.280585527420044 9.9727783203125 14.31444835662842
v 1.280585527420044 9.681306838989258 13.80960369110107
v 1.280585527420044 9.782533645629883 13.23551654815674
v 1.280585527420044 10.22909450531006 12.86080837249756
v 1.280585527420044 10.81203842163086 12.86080837249756
v 1.280585527420044 11.25859832763672 13.23551654815674
v 1.280585527420044 11.35982513427734 13.80960369110107
v 1.280585527420044 11.0683536529541 14.31444835662842
v 90.97177124023438 10.5205659866333 14.51382637023926
v 90.97177124023438 9.9727783203125 14.31444835662842
v 90.97177124023438 9.681306838989258 13.80960369110107
v 90.97177124023438 9.782533645629883 13.23551654815674
v 90.97177124023438 10.22909450531006 12.86080837249756
v 90.97177124023438 10.81203842163086 12.86080837249756
v 90.97177124023438 11.25859832763672 13.23551654815674
v 90.97177124023438 11.35982513427734 13.80960369110107
v 90.97177124023438 11.0683536529541 14.31444835662842
vt 0 0
vt 0 1
vt 0.08963567018508911 0
vt 0.08963567018508911 1
vt 0.1792713403701782 0
vt 0.1792713403701782 1
vt 0.2689070105552673 0
vt 0.2689070105552673 1
vt 0.3585426807403565 0
vt 0.3585426807403565 1
vt 0.4481783509254456 0
vt 0.4481783509254456 1
vt 0.5378140211105347 0
vt 0.5378140211105347 1
vt 0.6274496912956238 0
vt 0.6274496912956238 1
vt 0.7170853614807129 0
vt 0.7170853614807129 1
vt 0.806721031665802 0
vt 0.806721031665802 1
vt 1 0.009357210248708725
vt 0.9766877889633179 0.00324972509406507
vt 0.9176592230796814 0
vt 0.8505344390869141 0.00112861767411232
vt 0.8067218065261841 0.006107485387474299
vt 0.8067218065261841 0.01260693557560444
vt 0.8505344390869141 0.01758580282330513
vt 0.9176592230796814 0.01871442049741745
vt 0.9766877889633179 0.01546469610184431
vt 1 0.009357210248708725
vt 0.9766877889633179 0.01546469610184431
vt 0.9176592230796814 0.01871442049741745
vt 0.8505344390869141 0.01758580282330513
vt 0.8067218065261841 0.01260693557560444
vt 0.8067218065261841 0.006107485387474299
vt 0.8505344390869141 0.00112861767411232
vt 0.9176592230796814 0
vt 0.9766877889633179 0.00324972509406507
vn 0 0 1
vn 0 0 1
vn 0 -0.6427876353263855 0.7660444378852844
vn 0 -0.6427876353263855 0.7660444378852844
vn 0 -0.9848077297210693 0.1736481785774231
vn 0 -0.9848077297210693 0.1736481785774231
vn 0 -0.8660253882408142 -0.5
vn 0 -0.8660253882408142 -0.5
vn 0 -0.3420201539993286 -0.9396926164627075
vn 0 -0.3420201539993286 -0.9396926164627075
vn 0 0.3420201539993286 -0.9396926164627075
vn 0 0.3420201539993286 -0.9396926164627075
vn 0 0.8660253882408142 -0.5
vn 0 0.8660253882408142 -0.5
vn 0 0.9848077297210693 0.1736481785774231
vn 0 0.9848077297210693 0.1736481785774231
vn 0 0.6427876353263855 0.7660444378852844
vn 0 0.6427876353263855 0.7660444378852844
vn 0 0 1
vn 0 0 1
vn -1 0 0
vn -1 0 0
vn -1 0 0
vn -1 0 0
vn -1 0 0
vn -1 0 0
vn -1 0 0
vn -1 0 0
vn -1 0 0
vn 1 0 0
vn 1 0 0
vn 1 0 0
vn 1 0 0
vn 1 0 0
vn 1 0 0
vn 1 0 0
vn 1 0 0
vn 1 0 0
f 1/1/1 3/3/3 4/4/4 2/2/2
f 3/3/3 5/5/5 6/6/6 4/4/4
f 5/5/5 7/7/7 8/8/8 6/6/6
f 7/7/7 9/9/9 10/10/10 8/8/8
f 9/9/9 11/11/11 12/12/12 10/10/10
f 11/11/11 13/13/13 14/14/14 12/12/12
f 13/13/13 15/15/15 16/16/16 14/14/14
f 15/15/15 17/17/17 18/18/18 16/16/16
f 17/17/17 19/19/19 20/20/20 18/18/18
f 23/23/23 26/26/26 24/24/24
f 26/26/26 25/25/25 24/24/24
f 29/29/29 27/27/27 26/26/26
f 26/26/26 23/23/23 29/29/29
f 23/23/23 22/22/22 29/29/29
f 21/21/21 29/29/29 22/22/22
f 28/28/28 27/27/27 29/29/29
f 32/32/32 33/33/33 35/35/35
f 35/35/35 33/33/33 34/34/34
f 38/38/38 35/35/35 36/36/36
f 35/35/35 38/38/38 32/32/32
f 32/32/32 38/38/38 31/31/31
f 30/30/30 31/31/31 38/38/38
f 37/37/37 38/38/38 36/36/36
g object_2
usemtl Black Reflective
v 90.904541015625 11.40651035308838 13.17431831359863
v 90.904541015625 11.40651035308838 14.0531816482544
v 90.904541015625 9.572270393371582 13.17431831359863
v 90.904541015625 9.572270393371582 14.0531816482544
v 90.904541015625 9.572270393371582 13.17431831359863
v 90.904541015625 9.572270393371582 14.0531816482544
v 93.25236511230469 8.068194389343262 13.17431831359863
v 93.25236511230469 8.068194389343262 14.0531816482544
v 93.25236511230469 8.068194389343262 13.17431831359863
v 93.25236511230469 8.068194389343262 14.0531816482544
v 94.64639282226563 5.757052898406982 13.17431831359863
v 94.64639282226563 5.757052898406982 14.0531816482544
v 94.64639282226563 5.757052898406982 13.17431831359863
v 94.64639282226563 5.757052898406982 14.0531816482544
v 100.6626968383789 5.610313892364502 13.17431831359863
v 100.6626968383789 5.610313892364502 14.0531816482544
v 100.6626968383789 5.610313892364502 13.17431831359863
v 100.6626968383789 5.610313892364502 14.0531816482544
v 107.9996490478516 6.344009399414063 13.17431831359863
v 107.9996490478516 6.344009399414063 14.0531816482544
v 107.9996490478516 6.344009399414063 13.17431831359863
v 107.9996490478516 6.344009399414063 14.0531816482544
v 106.6423187255859 9.865749359130859 13.17431831359863
v 106.6423187255859 9.865749359130859 14.0531816482544
v 106.6423187255859 9.865749359130859 13.17431831359863
v 106.6423187255859 9.865749359130859 14.0531816482544
v 105.7985687255859 14.15786838531494 13.17431831359863
v 105.7985687255859 14.15786838531494 14.0531816482544
v 105.7985687255859 14.15786838531494 13.17431831359863
v 105.7985687255859 14.15786838531494 14.0531816482544
v 100.185791015625 13.60759735107422 13.17431831359863
v 100.185791015625 13.60759735107422 14.0531816482544
v 100.185791015625 13.60759735107422 13.17431831359863
v 100.185791015625 13.60759735107422 14.0531816482544
v 90.904541015625 11.40651035308838 13.17431831359863
v 90.904541015625 11.40651035308838 14.0531816482544
v 90.904541015625 11.40651035308838 13.17431831359863
v 90.904541015625 9.572270393371582 13.17431831359863
v 93.25236511230469 8.068194389343262 13.17431831359863
v 94.64639282226563 5.757052898406982 13.17431831359863
v 100.6626968383789 5.610313892364502 13.17431831359863
v 107.9996490478516 6.344009399414063 13.17431831359863
v 106.6423187255859 9.865749359130859 13.17431831359863
v 105.7985687255859 14.15786838531494 13.17431831359863
v 100.185791015625 13.60759735107422 13.17431831359863
v 90.904541015625 11.40651035308838 14.0531816482544
v 90.904541015625 9.572270393371582 14.0531816482544
v 93.25236511230469 8.068194389343262 14.0531816482544
v 94.64639282226563 5.757052898406982 14.0531816482544
v 100.6626968383789 5.610313892364502 14.0531816482544
v 107.9996490478516 6.344009399414063 14.0531816482544
v 106.6423187255859 9.865749359130859 14.0531816482544
v 105.7985687255859 14.15786838531494 14.0531816482544
v 100.185791015625 13.60759735107422 14.0531816482544
vt 0 0
vt 0 0.5244479179382324
vt 0.04164933040738106 0
vt 0.04164933040738106 0.5244479179382324
vt 0.04164933040738106 0
vt 0.04164933040738106 0.5244479179382324
vt 0.1049617901444435 0
vt 0.1049617901444435 0.5244479179382324
vt 0.1049617901444435 0
vt 0.1049617901444435 0.5244479179382324
vt 0.1662471890449524 0
vt 0.1662471890449524 0.5244479179382324
vt 0.1662471890449524 0
vt 0.1662471890449524 0.5244479179382324
vt 0.3028976321220398 0
vt 0.3028976321220398 0.5244479179382324
vt 0.3028976321220398 0
vt 0.3028976321220398 0.5244479179382324
vt 0.4703258574008942 0
vt 0.4703258574008942 0.5244479179382324
vt 0.4703258574008942 0
vt 0.4703258574008942 0.5244479179382324
vt 0.5560263991355896 0
vt 0.5560263991355896 0.5244479179382324
vt 0.5560263991355896 0
vt 0.5560263991355896 0.5244479179382324
vt 0.6553511023521423 0
vt 0.6553511023521423 0.5244479179382324
vt 0.6553511023521423 0
vt 0.6553511023521423 0.5244479179382324
vt 0.783409059047699 0
vt 0.783409059047699 0.5244479179382324
vt 0.783409059047699 0
vt 0.783409059047699 0.5244479179382324
vt 1 0
vt 1 0.5244479179382324
vt 0.3881717622280121 0.8469254970550537
vt 0.3881717622280121 0.7448757886886597
vt 0.334860622882843 0.6611950397491455
vt 0.303207129240036 0.5326124429702759
vt 0.1665973216295242 0.5244484543800354
vt 0 0.565268337726593
vt 0.03082050383090973 0.7612037658691406
vt 0.04997919499874115 1
vt 0.1774261444807053 0.9693850874900818
vt 0.3881717622280121 0.6775230169296265
vt 0.3881717622280121 0.7795726656913757
vt 0.334860622882843 0.8632534146308899
vt 0.303207129240036 0.9918360114097595
vt 0.1665973216295242 1
vt 0 0.9591801166534424
vt 0.03082050383090973 0.7632447481155396
vt 0.04997919499874115 0.5244484543800354
vt 0.1774261444807053 0.5550633668899536
vn -1 0 0
vn -1 0 0
vn -1 0 0
vn -1 0 0
vn -0.5394269824028015 -0.8420323729515076 0
vn -0.5394269824028015 -0.8420323729515076 0
vn -0.5394269824028015 -0.8420323729515076 0
vn -0.5394269824028015 -0.8420323729515076 0
vn -0.8562912940979004 -0.5164931416511536 0
vn -0.8562912940979004 -0.5164931416511536 0
vn -0.8562912940979004 -0.5164931416511536 0
vn -0.8562912940979004 -0.5164931416511536 0
vn -0.02438299171626568 -0.9997026920318604 0
vn -0.02438299171626568 -0.9997026920318604 0
vn -0.02438299171626568 -0.9997026920318604 0
vn -0.02438299171626568 -0.9997026920318604 0
vn 0.09950371831655502 -0.9950371980667114 0
vn 0.09950371831655502 -0.9950371980667114 0
vn 0.09950371831655502 -0.9950371980667114 0
vn 0.09950371831655502 -0.9950371980667114 0
vn 0.93309485912323 0.3596303164958954 0
vn 0.93309485912323 0.3596303164958954 0
vn 0.93309485912323 0.3596303164958954 0
vn 0.93309485912323 0.3596303164958954 0
vn 0.9812204837799072 0.1928894966840744 0
vn 0.9812204837799072 0.1928894966840744 0
vn 0.9812204837799072 0.1928894966840744 0
vn 0.9812204837799072 0.1928894966840744 0
vn -0.09757142513990402 0.9952285289764404 0
vn -0.09757142513990402 0.9952285289764404 0
vn -0.09757142513990402 0.9952285289764404 0
vn -0.09757142513990402 0.9952285289764404 0
vn -0.2307538688182831 0.9730121493339539 0
vn -0.2307538688182831 0.9730121493339539 0
vn -0.2307538688182831 0.9730121493339539 0
vn -0.2307538688182831 0.9730121493339539 0
vn 0 0 -1
vn 0 0 -1
vn 0 0 -1
vn 0 0 -1
vn 0 0 -1
vn 0 0 -1
vn 0 0 -1
vn 0 0 -1
vn 0 0 -1
vn 0 0 1
vn 0 0 1
vn 0 0 1
vn 0 0 1
vn 0 0 1
vn 0 0 1
vn 0 0 1
vn 0 0 1
vn 0 0 1
f 39/39/39 41/41/41 42/42/42 40/40/40
f 43/43/43 45/45/45 46/46/46 44/44/44
f 47/47/47 49/49/49 50/50/50 48/48/48
f 51/51/51 53/53/53 54/54/54 52/52/52
f 55/55/55 57/57/57 58/58/58 56/56/56
f 59/59/59 61/61/61 62/62/62 60/60/60
f 63/63/63 65/65/65 66/66/66 64/64/64
f 67/67/67 69/69/69 70/70/70 68/68/68
f 71/71/71 73/73/73 74/74/74 72/72/72
f 83/83/83 81/81/81 79/79/79
f 81/81/81 80/80/80 79/79/79
f 83/83/83 82/82/82 81/81/81
f 77/77/77 75/75/75 83/83/83
f 77/77/77 79/79/79 78/78/78
f 75/75/75 77/77/77 76/76/76
f 83/83/83 79/79/79 77/77/77
f 92/92/92 88/88/88 90/90/90
f 90/90/90 88/88/88 89/89/89
f 92/92/92 90/90/90 91/91/91
f 86/86/86 92/92/92 84/84/84
f 86/86/86 87/87/87 88/88/88
f 84/84/84 85/85/85 86/86/86
f 92/92/92 86/86/86 88/88/88
